<svg class="diagram-root" style="background: #f5f6f6" xmlns="http://www.w3.org/2000/svg" xmlns:xlink="http://www.w3.org/1999/xlink"><style>.diagram-root { font-family: "Helvetica Neue", sans-serif; font-size: 12px; } .t { overflow: visible; } .t-bg { y: 40; fill: #fff;   } .th { fill: #005aa0;   } .tht { fill: #fff; font-size: 14px;  } .tf { fill: #323c46; overflow: visible; } .tf.pk { fill: #005aa0; font-weight: bold; } .tf.fk { font-weight: bold; } .ty { fill: #adb1b5; font-weight: normal; text-anchor: end; } .r { fill: transparent; stroke: #c3c3c3; stroke-width: 1; } .l { stroke: 1; } .i { fill: #c2c7ce; stroke: #c2c7ce; } .i.ix { fill: #afb3b6; stroke: #000; } .fa { fill: transparent; overflow: visible; } .fa .bg.hover { fill: #f7f7f7; } .c { cy: 12; r: 4; stroke: #d2d2dc; fill: #d2d2dc; } .hr { fill: transparent; stroke: #323c46; stroke-opacity: 0.035; stroke-width: 13; } .dc { stroke: #fa5a3c; fill: #fa5a3c; } .x { stroke: white; stroke-width: 1; } .hl .th { fill: #1b9bff; } .hl .tht {  } .fhl .bg { fill: #e7f4ff; } .fhls .bg {  } .r.hl { stroke: #1b9bff; } .dim { opacity: 0.25; }</style><g class="drawing-wrapper" transform="translate(-356.3333333333336, -66.66777777777773) scale(1,1)"><g class="rs"><path d="M 544.33 199.78 m -1, 0 a 1,1 0 1,0 2,0 a 1,1 0 1,0 -2,0 M 544.33 199.78 m -0.5, 0 a 0.5,0.5 0 1,0 1,0 a 0.5,0.5 0 1,0 -1,0  M544.33 199.78 L544.33 199.78 556.33 199.78 M550.33 205.78 L550.33 205.78 550.33 193.78 M556.33 199.78 Q 594.39 199.78, 632.44 176.72 T 708.5522222222224 153.66777777777773 M 720.5522222222224 153.66777777777773 m -1, 0 a 1,1 0 1,0 2,0 a 1,1 0 1,0 -2,0 M 720.5522222222224 153.66777777777773 m -0.5, 0 a 0.5,0.5 0 1,0 1,0 a 0.5,0.5 0 1,0 -1,0  M720.5522222222224 153.66777777777773 L720.5522222222224 153.66777777777773 708.5522222222224 153.66777777777773 M714.5522222222224 159.66777777777773 L714.5522222222224 159.66777777777773 714.5522222222224 147.66777777777773" id="h403793656" class="r"></path><path d="M 544.33 474.78 m -1, 0 a 1,1 0 1,0 2,0 a 1,1 0 1,0 -2,0 M 544.33 474.78 m -0.5, 0 a 0.5,0.5 0 1,0 1,0 a 0.5,0.5 0 1,0 -1,0  M544.33 474.78 L544.33 474.78 556.33 474.78 M 544.33 480.78 m -1, 0 a 1,1 0 1,0 2,0 a 1,1 0 1,0 -2,0 M 544.33 480.78 m -0.5, 0 a 0.5,0.5 0 1,0 1,0 a 0.5,0.5 0 1,0 -1,0  M544.33 480.78 L544.33 480.78 551.33 474.78 544.33 468.78 M 544.33 468.78 m -1, 0 a 1,1 0 1,0 2,0 a 1,1 0 1,0 -2,0 M 544.33 468.78 m -0.5, 0 a 0.5,0.5 0 1,0 1,0 a 0.5,0.5 0 1,0 -1,0  M556.33 474.78 Q 593.97 474.78, 631.61 413.67 T 706.8888888888891 352.55444444444487 M 718.8888888888891 352.55444444444487 m -1, 0 a 1,1 0 1,0 2,0 a 1,1 0 1,0 -2,0 M 718.8888888888891 352.55444444444487 m -0.5, 0 a 0.5,0.5 0 1,0 1,0 a 0.5,0.5 0 1,0 -1,0  M718.8888888888891 352.55444444444487 L718.8888888888891 352.55444444444487 706.8888888888891 352.55444444444487 M712.8888888888891 358.55444444444487 L712.8888888888891 358.55444444444487 712.8888888888891 346.55444444444487" id="h304082562" class="r"></path><path d="M 544.33 499.78 m -1, 0 a 1,1 0 1,0 2,0 a 1,1 0 1,0 -2,0 M 544.33 499.78 m -0.5, 0 a 0.5,0.5 0 1,0 1,0 a 0.5,0.5 0 1,0 -1,0  M544.33 499.78 L544.33 499.78 556.33 499.78 M 544.33 505.78 m -1, 0 a 1,1 0 1,0 2,0 a 1,1 0 1,0 -2,0 M 544.33 505.78 m -0.5, 0 a 0.5,0.5 0 1,0 1,0 a 0.5,0.5 0 1,0 -1,0  M544.33 505.78 L544.33 505.78 551.33 499.78 544.33 493.78 M 544.33 493.78 m -1, 0 a 1,1 0 1,0 2,0 a 1,1 0 1,0 -2,0 M 544.33 493.78 m -0.5, 0 a 0.5,0.5 0 1,0 1,0 a 0.5,0.5 0 1,0 -1,0  M556.33 499.78 Q 593.14 499.78, 629.95 507.28 T 703.5600000000002 514.775555555556 M 715.5600000000002 514.775555555556 m -1, 0 a 1,1 0 1,0 2,0 a 1,1 0 1,0 -2,0 M 715.5600000000002 514.775555555556 m -0.5, 0 a 0.5,0.5 0 1,0 1,0 a 0.5,0.5 0 1,0 -1,0  M715.5600000000002 514.775555555556 L715.5600000000002 514.775555555556 703.5600000000002 514.775555555556 M709.5600000000002 520.775555555556 L709.5600000000002 520.775555555556 709.5600000000002 508.775555555556" id="h1054157934" class="r"></path></g><g class="hrs"></g><g class="ts"><svg width="166" height="400" x="378.33" y="117.78" id="h3257514455" class="t"><rect height="40" width="166" class="th"></rect><text x="13" y="25" class="tht">campaign</text><rect height="360" width="166" class="t-bg" y="40"></rect><text x="13" y="61" class="tf pk">cf_id<tspan x="153" class="ty">int</tspan></text><path d="M7,14A2,2 0 0,1 5,12A2,2 0 0,1 7,10A2,2 0 0,1 9,12A2,2 0 0,1 7,14M12.65,10C11.83,7.67 9.61,6 7, 6A6, 6 0 0, 0 1, 12A6, 6 0 0, 0 7, 18C9.61, 18 11.83, 16.33 12.65, 14H17V18H21V14H23V10H12.65Z" class="i pk" transform="translate(120, 48) scale(0.65)"></path><text x="13" y="86" class="tf fk">contact_id<tspan x="153" class="ty">int</tspan></text><text x="13" y="111" class="tf">company_name<tspan x="153" class="ty">string</tspan></text><text x="13" y="136" class="tf">description<tspan x="153" class="ty">string</tspan></text><text x="13" y="161" class="tf">goal<tspan x="153" class="ty">float</tspan></text><text x="13" y="186" class="tf">pledged<tspan x="153" class="ty">float</tspan></text><text x="13" y="211" class="tf">outcome<tspan x="153" class="ty">string</tspan></text><text x="13" y="236" class="tf">backers_count<tspan x="153" class="ty">int</tspan></text><text x="13" y="261" class="tf">country<tspan x="153" class="ty">string</tspan></text><text x="13" y="286" class="tf">currency<tspan x="153" class="ty">string</tspan></text><text x="13" y="311" class="tf">launched_at<tspan x="153" class="ty">date</tspan></text><text x="13" y="336" class="tf">deadline<tspan x="153" class="ty">date</tspan></text><text x="13" y="361" class="tf fk">category_id<tspan x="153" class="ty">string</tspan></text><text x="13" y="386" class="tf fk">subcategory_id<tspan x="153" class="ty">string</tspan></text></svg><svg width="136" height="150" x="720.5522222222224" y="96.66777777777773" id="h4144639668" class="t"><rect height="40" width="136" class="th"></rect><text x="13" y="25" class="tht">contacts</text><rect height="110" width="136" class="t-bg" y="40"></rect><text x="13" y="61" class="tf pk">contact_id<tspan x="123" class="ty">int</tspan></text><path d="M7,14A2,2 0 0,1 5,12A2,2 0 0,1 7,10A2,2 0 0,1 9,12A2,2 0 0,1 7,14M12.65,10C11.83,7.67 9.61,6 7, 6A6, 6 0 0, 0 1, 12A6, 6 0 0, 0 7, 18C9.61, 18 11.83, 16.33 12.65, 14H17V18H21V14H23V10H12.65Z" class="i pk" transform="translate(90, 48) scale(0.65)"></path><text x="13" y="86" class="tf">first_name<tspan x="123" class="ty">string</tspan></text><text x="13" y="111" class="tf">last_name<tspan x="123" class="ty">string</tspan></text><text x="13" y="136" class="tf">email<tspan x="123" class="ty">string</tspan></text></svg><svg width="162" height="100" x="718.8888888888891" y="295.55444444444487" id="h2794354149" class="t"><rect height="40" width="162" class="th"></rect><text x="13" y="25" class="tht">category</text><rect height="60" width="162" class="t-bg" y="40"></rect><text x="13" y="61" class="tf pk">category_id<tspan x="149" class="ty">string</tspan></text><path d="M7,14A2,2 0 0,1 5,12A2,2 0 0,1 7,10A2,2 0 0,1 9,12A2,2 0 0,1 7,14M12.65,10C11.83,7.67 9.61,6 7, 6A6, 6 0 0, 0 1, 12A6, 6 0 0, 0 7, 18C9.61, 18 11.83, 16.33 12.65, 14H17V18H21V14H23V10H12.65Z" class="i pk" transform="translate(98, 48) scale(0.65)"></path><text x="13" y="86" class="tf">category_name<tspan x="149" class="ty">string</tspan></text></svg><svg width="183" height="100" x="715.5600000000002" y="457.775555555556" id="h1568904301" class="t"><rect height="40" width="183" class="th"></rect><text x="13" y="25" class="tht">subcategory</text><rect height="60" width="183" class="t-bg" y="40"></rect><text x="13" y="61" class="tf pk">subcategory_id<tspan x="170" class="ty">string</tspan></text><path d="M7,14A2,2 0 0,1 5,12A2,2 0 0,1 7,10A2,2 0 0,1 9,12A2,2 0 0,1 7,14M12.65,10C11.83,7.67 9.61,6 7, 6A6, 6 0 0, 0 1, 12A6, 6 0 0, 0 7, 18C9.61, 18 11.83, 16.33 12.65, 14H17V18H21V14H23V10H12.65Z" class="i pk" transform="translate(119, 48) scale(0.65)"></path><text x="13" y="86" class="tf">subcategory_name<tspan x="170" class="ty">string</tspan></text></svg></g></g><text class="qdbd-link" x="10" y="20">www.quickdatabasediagrams.com</text></svg>
